<?xml version="1.0" encoding="UTF-8" standalone="no"?>
<svg width="395px" height="29px" viewBox="0 0 395 29" version="1.1" xmlns="http://www.w3.org/2000/svg" xmlns:xlink="http://www.w3.org/1999/xlink">
    <!-- Generator: Sketch 3.8.2 (29753) - http://www.bohemiancoding.com/sketch -->
    <title>Artboard 6</title>
    <desc>Created with Sketch.</desc>
    <defs></defs>
    <g id="Page-1" stroke="none" stroke-width="1" fill="none" fill-rule="evenodd">
        <g id="Artboard-6">
            <g id="Group-5">
                <path d="M5.65717537,17.1961512 C6.13559873,16.1979079 6.15401824,14.573848 5.69723963,13.5663366 L0.826197867,2.82233524 C0.369901385,1.81588728 0.898338318,1 2.00732994,1 L24.9926701,1 C26.1012878,1 27.3868395,1.81482385 27.858241,2.80776592 L32.9728137,13.580906 C33.4468071,14.5793075 33.4292439,16.1893064 32.9380136,17.1681153 L27.8930411,27.2205566 C27.3998281,28.203316 26.1016617,29 24.9926701,29 L2.00732994,29 C0.898712226,29 0.388534777,28.1893117 0.866262133,27.1925207 L5.65717537,17.1961512 Z" id="arrow" fill="#F8B22C"></path>
                <text id="1" font-family="PingFangSC-Medium, PingFang SC" font-size="18" font-weight="400" fill="#FFFFFF">
                    <tspan x="13" y="21">1</tspan>
                </text>
            </g>
            <g id="Group-4" transform="translate(139.000000, 1.000000)">
                <path d="M5.65717537,16.1961512 C6.13559873,15.1979079 6.15401824,13.573848 5.69723963,12.5663366 L0.826197867,1.82233524 C0.369901385,0.815887276 0.898338318,0 2.00732994,0 L24.9926701,0 C26.1012878,0 27.3868395,0.814823848 27.858241,1.80776592 L32.9728137,12.580906 C33.4468071,13.5793075 33.4292439,15.1893064 32.9380136,16.1681153 L27.8930411,26.2205566 C27.3998281,27.203316 26.1016617,28 24.9926701,28 L2.00732994,28 C0.898712226,28 0.388534777,27.1893117 0.866262133,26.1925207 L5.65717537,16.1961512 Z" id="arrow" fill="#F8B22C"></path>
                <text id="2" font-family="PingFangSC-Medium, PingFang SC" font-size="18" font-weight="400" fill="#FFFFFF">
                    <tspan x="12" y="20">2</tspan>
                </text>
            </g>
            <g id="Group-3" transform="translate(278.000000, 1.000000)">
                <path d="M5.65717537,16.1961512 C6.13559873,15.1979079 6.15401824,13.573848 5.69723963,12.5663366 L0.826197867,1.82233524 C0.369901385,0.815887276 0.898338318,0 2.00732994,0 L24.9926701,0 C26.1012878,0 27.3868395,0.814823848 27.858241,1.80776592 L32.9728137,12.580906 C33.4468071,13.5793075 33.4292439,15.1893064 32.9380136,16.1681153 L27.8930411,26.2205566 C27.3998281,27.203316 26.1016617,28 24.9926701,28 L2.00732994,28 C0.898712226,28 0.388534777,27.1893117 0.866262133,26.1925207 L5.65717537,16.1961512 Z" id="arrow" fill="#F8B22C"></path>
                <text id="3" font-family="PingFangSC-Medium, PingFang SC" font-size="18" font-weight="400" fill="#FFFFFF">
                    <tspan x="12" y="20">3</tspan>
                </text>
            </g>
            <text id="上传素材" font-family="PingFangSC-Regular, PingFang SC" font-size="16" font-weight="normal" letter-spacing="1.79999995" fill="#999999">
                <tspan x="47" y="21">上传素</tspan>
                <tspan x="100.4" y="21">材</tspan>
            </text>
            <text id="需求描述" font-family="PingFangSC-Regular, PingFang SC" font-size="16" font-weight="normal" letter-spacing="1.79999995" fill="#999999">
                <tspan x="186" y="22">需求描述</tspan>
            </text>
            <text id="选择套餐" font-family="PingFangSC-Regular, PingFang SC" font-size="16" font-weight="normal" letter-spacing="1.79999995" fill="#999999">
                <tspan x="324" y="22">选择套餐</tspan>
            </text>
        </g>
    </g>
</svg>